<?xml version="1.0" encoding="utf-8"?>
<!-- Generator: Adobe Illustrator 19.2.1, SVG Export Plug-In . SVG Version: 6.00 Build 0)  -->
<svg version="1.1" id="Layer_1" xmlns="http://www.w3.org/2000/svg" xmlns:xlink="http://www.w3.org/1999/xlink" x="0px" y="0px"
	 viewBox="0 0 100 100" style="enable-background:new 0 0 100 100;" xml:space="preserve">
<style type="text/css">
	.st0{fill:#124375;}
	.st1{fill:#FFFFFF;}
</style>
<path class="st0" d="M83,100H17c-9.4,0-17-7.7-17-17V17C0,7.7,7.6,0,17,0h66c9.3,0,17,7.7,17,17v66C100,92.3,92.3,100,83,100z"/>
<path class="st1" d="M65.2,20.9c-0.8,0.1-1.5,0.2-2.3,0.3c-5,1.1-8.6,3.9-10.8,8.5c-1.5,3.1-1.8,6.3-1.2,9.7c0,0.1,0,0.2,0.1,0.4
	C38.1,39,27.6,33.6,19.3,23.8c-2,3.5-2.5,7.2-1.7,11.1c0.9,3.9,3.1,7,6.3,9.3c-1.2,0-2.4-0.2-3.5-0.5c-1.1-0.4-2.2-0.8-3.3-1.2
	c-0.3,5.5,3.6,13.2,12.1,15.1c-1.1,0.4-2.2,0.5-3.3,0.5c-1.1,0-2.3-0.1-3.4-0.2c1,3,2.8,5.6,5.4,7.5c2.6,1.9,5.6,2.9,8.8,3.1
	c-6.7,5.1-14.2,7.2-22.6,6.4c0.1,0.1,0.2,0.1,0.2,0.2c4.8,3,9.9,5,15.5,6c2.9,0.5,5.8,0.7,8.8,0.7c6.3-0.1,12.3-1.4,17.9-4.1
	c4.1-1.9,7.8-4.5,11.1-7.7c6.5-6.3,10.7-14,12.7-22.8c0.8-3.6,1.1-7.2,1-10.9c0-0.2,0.1-0.4,0.2-0.5c2.8-2,5.1-4.5,7.1-7.3
	c0.1-0.1,0.2-0.2,0.3-0.4c-2.8,1.2-5.7,2-8.7,2.3c1.5-1,2.9-2.2,4-3.6c1.1-1.4,2-3,2.6-4.8c-0.6,0.3-1.2,0.6-1.7,0.9
	c-2.5,1.3-5,2.1-7.7,2.7c-0.2,0-0.4,0-0.5-0.2c-2.2-2.3-4.9-3.7-8-4.3c-0.7-0.1-1.5-0.2-2.2-0.3"/>
</svg>
