<?xml version="1.0" encoding="utf-8"?>
<!-- Generator: Adobe Illustrator 19.2.1, SVG Export Plug-In . SVG Version: 6.00 Build 0)  -->
<svg version="1.1" xmlns="http://www.w3.org/2000/svg" xmlns:xlink="http://www.w3.org/1999/xlink" x="0px" y="0px"
	 viewBox="0 0 100 100" style="enable-background:new 0 0 100 100;" xml:space="preserve">
<style type="text/css">
	.st0{fill:#124375;}
	.st1{fill:#FFFFFF;}
</style>
<g id="Layer_1">
	<path class="st0" d="M83,100H17c-9.4,0-17-7.7-17-17V17C0,7.7,7.6,0,17,0h66c9.3,0,17,7.7,17,17v66C100,92.3,92.3,100,83,100z"/>
</g>
<g id="Layer_2">
	<g>
		<path class="st1" d="M53.4,100.1c0-0.2,0-0.4,0-0.7c0-12.4,0-24.8,0-37.2c0-0.8,0-0.8-0.8-0.8c-3.8,0-7.7,0-11.5,0
			c-0.2,0-0.4,0-0.7,0c0-0.3,0-0.5,0-0.7c0-4.6,0-9.2,0-13.8c0-0.6,0.2-0.7,0.7-0.7c3.9,0,7.7,0,11.6,0c0.8,0,0.8,0,0.8-0.8
			c0-4,0-8,0.1-12c0.1-3.8,1.1-7.5,3.3-10.7c2.7-4,6.6-6.2,11.2-7.1C71,15,74,15.1,77,15.3c2.3,0.1,4.6,0.3,6.9,0.4
			c0.8,0,0.8,0.1,0.8,0.8c0,4.1,0,8.1,0,12.2c0,0.5-0.1,0.7-0.7,0.7c-2.5,0-4.9,0-7.4,0c-1,0-2.1,0.1-3.1,0.3
			c-2.4,0.5-3.8,2.1-4.1,4.6c-0.1,0.7-0.1,1.5-0.1,2.2c0,3,0,6,0,9c0,0.5,0.1,0.7,0.7,0.7c4.5,0,8.9,0,13.4,0c0.3,0,0.5,0,0.8,0.1
			c-0.2,1.3-0.3,2.5-0.5,3.8c-0.5,3.6-0.9,7.1-1.4,10.7c-0.1,0.4-0.2,0.6-0.7,0.6c-3.9,0-7.7,0-11.6,0c-0.8,0-0.8,0-0.8,0.8
			c0,12.3,0,24.7,0,37c0,0.3,0,0.6,0,0.9C64,100.1,58.7,100.1,53.4,100.1z"/>
	</g>
</g>
</svg>
