<?xml version="1.0" encoding="utf-8"?>
<!-- Generator: Adobe Illustrator 19.2.1, SVG Export Plug-In . SVG Version: 6.00 Build 0)  -->
<svg version="1.1" xmlns="http://www.w3.org/2000/svg" xmlns:xlink="http://www.w3.org/1999/xlink" x="0px" y="0px"
	 viewBox="0 0 100 100" style="enable-background:new 0 0 100 100;" xml:space="preserve">
<style type="text/css">
	.st0{fill:#124375;}
	.st1{fill:#FFFFFF;}
</style>
<g id="Layer_1">
	<path class="st0" d="M83.2,100h-66c-9.4,0-17-7.7-17-17V17c0-9.4,7.7-17,17-17h66c9.3,0,17,7.7,17,17v66
		C100.2,92.3,92.5,100,83.2,100z"/>
</g>
<g id="Layer_2">
	<g>
		<path class="st1" d="M14,78.7c0-19.1,0-38.1,0-57.2c0-0.1,0.1-0.2,0.1-0.3c0.5-3,2-5.2,4.7-6.5c0.8-0.4,1.7-0.6,2.6-0.9
			c19.2,0,38.5,0,57.7,0c0.1,0,0.3,0.1,0.4,0.1c2.6,0.5,4.6,1.8,5.8,4.1c0.5,1,0.8,2.1,1.2,3.1c0,19.3,0,38.6,0,57.9
			c0,0.1-0.1,0.2-0.1,0.4c-0.6,2.6-1.9,4.6-4.3,5.9c-0.9,0.5-1.9,0.7-2.8,1c-19.4,0-38.8,0-58.1,0c-0.1,0-0.2-0.1-0.3-0.1
			c-2.5-0.6-4.5-1.9-5.7-4.2C14.6,81.1,14.4,79.8,14,78.7z M71.9,44.6c1.6,7,0.4,13.4-3.9,19c-4.3,5.7-10.2,8.6-17.3,8.8
			c-6.3,0.1-11.7-2-16.1-6.5c-5.8-6-7.7-13.2-5.9-21.3c-2.1,0-4.2,0-6.3,0c0,0.3,0,0.5,0,0.8c0,9.8,0,19.5,0,29.3
			c0,0.4,0,0.8,0.1,1.1c0.2,1,0.9,1.8,1.9,2c0.5,0.1,1,0.1,1.5,0.1c16.2,0,32.4,0,48.6,0c0.3,0,0.7,0,1,0c1.4-0.1,2.4-1.2,2.6-2.6
			c0-0.3,0-0.5,0-0.8c0-9.8,0-19.6,0-29.4c0-0.2,0-0.4,0-0.6C76.1,44.6,74,44.6,71.9,44.6z M50.3,64.1c7.7,0,13.9-6.2,14-13.9
			c0-7.6-6.2-13.9-13.9-13.9c-7.6,0-13.9,6.2-14,13.9C36.3,57.7,42.5,64,50.3,64.1z M64.3,29.2c0,1.3,0,2.7,0,4c0,1.8,1,2.9,2.8,3
			c2.8,0.1,5.5,0.1,8.3,0c1.8,0,2.8-1.2,2.8-3c0-2.6,0-5.3,0-7.9c0-1.9-1.2-3-3-3c-2.6,0-5.2,0-7.9,0c-1.9,0-3,1.1-3,3
			C64.2,26.6,64.3,27.9,64.3,29.2z"/>
	</g>
</g>
</svg>
